<svg width="18" height="19" viewBox="0 0 18 19" fill="none" xmlns="http://www.w3.org/2000/svg">
<path d="M4.66863 4.10824C4.52718 3.97162 4.33773 3.89602 4.14108 3.89773C3.94444 3.89944 3.75633 3.97832 3.61727 4.11738C3.47821 4.25643 3.39934 4.44454 3.39763 4.64119C3.39592 4.83784 3.47152 5.02729 3.60813 5.16874L7.93938 9.49999L3.60738 13.8312C3.53575 13.9004 3.47861 13.9832 3.43931 14.0747C3.4 14.1662 3.37931 14.2646 3.37845 14.3642C3.37758 14.4638 3.39656 14.5625 3.43427 14.6547C3.47198 14.7469 3.52767 14.8306 3.59809 14.901C3.66851 14.9715 3.75225 15.0271 3.84442 15.0649C3.93659 15.1026 4.03535 15.1215 4.13493 15.1207C4.23452 15.1198 4.33293 15.0991 4.42444 15.0598C4.51594 15.0205 4.5987 14.9634 4.66788 14.8917L8.99988 10.5605L13.3311 14.8917C13.4726 15.0284 13.662 15.104 13.8587 15.1022C14.0553 15.1005 14.2434 15.0217 14.3825 14.8826C14.5216 14.7435 14.6004 14.5554 14.6021 14.3588C14.6038 14.1621 14.5283 13.9727 14.3916 13.8312L10.0604 9.49999L14.3916 5.16874C14.5283 5.02729 14.6038 4.83784 14.6021 4.64119C14.6004 4.44454 14.5216 4.25643 14.3825 4.11738C14.2434 3.97832 14.0553 3.89944 13.8587 3.89773C13.662 3.89602 13.4726 3.97162 13.3311 4.10824L8.99988 8.43949L4.66863 4.10749V4.10824Z" fill="#1F2145"/>
</svg>
