<svg width="18" height="18" viewBox="0 0 18 18" fill="none" xmlns="http://www.w3.org/2000/svg">
<path d="M12.7492 3L9.9292 2.295C9.81025 2.26519 9.68808 2.25007 9.56545 2.25H6.55195C6.27333 2.25001 6.00022 2.32762 5.76323 2.47413C5.52624 2.62064 5.33474 2.83026 5.2102 3.0795L2.5852 8.3295C2.47093 8.55819 2.417 8.81229 2.42853 9.06768C2.44006 9.32307 2.51668 9.57127 2.65111 9.78873C2.78553 10.0062 2.97331 10.1857 3.1966 10.3102C3.41989 10.4346 3.6713 10.5 3.92695 10.5H7.49995L7.4992 14.25C7.4992 14.6478 7.65724 15.0294 7.93854 15.3107C8.21985 15.592 8.60138 15.75 8.9992 15.75H9.0712C9.4462 15.75 9.74995 15.4463 9.74995 15.072C9.74995 14.5358 9.9082 14.0123 10.206 13.566L12.75 9.75L12.7492 3ZM12.7492 3H14.25C14.6478 3 15.0293 3.15804 15.3106 3.43934C15.5919 3.72064 15.75 4.10218 15.75 4.5V9C15.75 9.39782 15.5919 9.77936 15.3106 10.0607C15.0293 10.342 14.6478 10.5 14.25 10.5H12.375" stroke="#1F2145" stroke-width="1.5" stroke-linecap="round" stroke-linejoin="round"/>
</svg>
