<svg width="18" height="18" viewBox="0 0 18 18" fill="none" xmlns="http://www.w3.org/2000/svg">
<path d="M16.2 8.55005C16.2 8.90809 16.0578 9.25147 15.8046 9.50464C15.5514 9.75782 15.208 9.90005 14.85 9.90005C14.492 9.90005 14.1486 9.75782 13.8954 9.50464C13.6422 9.25147 13.5 8.90809 13.5 8.55005V3.15005C13.5 2.79201 13.6422 2.44863 13.8954 2.19545C14.1486 1.94228 14.492 1.80005 14.85 1.80005C15.208 1.80005 15.5514 1.94228 15.8046 2.19545C16.0578 2.44863 16.2 2.79201 16.2 3.15005V8.55005Z" fill="#EE6E6E"/>
<path d="M12.6 8.70035V3.81335C12.6003 3.47895 12.5073 3.15109 12.3317 2.86654C12.156 2.58199 11.9046 2.35199 11.6055 2.20235L11.5605 2.17985C11.0603 1.92984 10.5087 1.79981 9.94953 1.80005H5.07603C4.65975 1.79988 4.25629 1.94401 3.93433 2.20787C3.61237 2.47174 3.39182 2.83905 3.31023 3.24725L2.23023 8.64725C2.17802 8.90844 2.18443 9.17796 2.249 9.43637C2.31356 9.69478 2.43467 9.93565 2.60359 10.1416C2.77251 10.3475 2.98503 10.5134 3.22582 10.6273C3.46661 10.7411 3.72967 10.8002 3.99603 10.8H7.20003V14.4C7.20003 14.8774 7.38967 15.3353 7.72723 15.6728C8.0648 16.0104 8.52264 16.2 9.00003 16.2C9.23872 16.2 9.46764 16.1052 9.63642 15.9364C9.8052 15.7677 9.90003 15.5387 9.90003 15.3V14.6997C9.90003 13.9208 10.1527 13.1629 10.62 12.5397L11.88 10.8603C12.3474 10.2372 12.6 9.47928 12.6 8.70035V8.70035Z" fill="#EE6E6E"/>
</svg>
