<svg width="16" height="17" viewBox="0 0 16 17" fill="none" xmlns="http://www.w3.org/2000/svg">
<g clip-path="url(#clip0)">
<path fill-rule="evenodd" clip-rule="evenodd" d="M8 0.5C3.58 0.5 0 4.08 0 8.5C0 12.04 2.29 15.03 5.47 16.09C5.87 16.16 6.02 15.92 6.02 15.71C6.02 15.52 6.01 14.89 6.01 14.22C4 14.59 3.48 13.73 3.32 13.28C3.23 13.05 2.84 12.34 2.5 12.15C2.22 12 1.82 11.63 2.49 11.62C3.12 11.61 3.57 12.2 3.72 12.44C4.44 13.65 5.59 13.31 6.05 13.1C6.12 12.58 6.33 12.23 6.56 12.03C4.78 11.83 2.92 11.14 2.92 8.08C2.92 7.21 3.23 6.49 3.74 5.93C3.66 5.73 3.38 4.91 3.82 3.81C3.82 3.81 4.49 3.6 6.02 4.63C6.66 4.45 7.34 4.36 8.02 4.36C8.7 4.36 9.38 4.45 10.02 4.63C11.55 3.59 12.22 3.81 12.22 3.81C12.66 4.91 12.38 5.73 12.3 5.93C12.81 6.49 13.12 7.2 13.12 8.08C13.12 11.15 11.25 11.83 9.47 12.03C9.76 12.28 10.01 12.76 10.01 13.51C10.01 14.58 10 15.44 10 15.71C10 15.92 10.15 16.17 10.55 16.09C12.1381 15.5538 13.5181 14.5331 14.4958 13.1716C15.4734 11.81 15.9995 10.1762 16 8.5C16 4.08 12.42 0.5 8 0.5Z" fill="black"/>
</g>
<defs>
<clipPath id="clip0">
<rect width="16" height="16" fill="white" transform="translate(0 0.5)"/>
</clipPath>
</defs>
</svg>
