<svg width="18" height="19" viewBox="0 0 18 19" fill="none" xmlns="http://www.w3.org/2000/svg">
<g clip-path="url(#clip0)">
<path fill-rule="evenodd" clip-rule="evenodd" d="M9 0.5C4.0275 0.5 0 4.5275 0 9.5C0 13.4825 2.57625 16.8462 6.15375 18.0387C6.60375 18.1175 6.7725 17.8475 6.7725 17.6112C6.7725 17.3975 6.76125 16.6887 6.76125 15.935C4.5 16.3512 3.915 15.3837 3.735 14.8775C3.63375 14.6187 3.195 13.82 2.8125 13.6062C2.4975 13.4375 2.0475 13.0212 2.80125 13.01C3.51 12.9987 4.01625 13.6625 4.185 13.9325C4.995 15.2937 6.28875 14.9112 6.80625 14.675C6.885 14.09 7.12125 13.6962 7.38 13.4712C5.3775 13.2462 3.285 12.47 3.285 9.0275C3.285 8.04875 3.63375 7.23875 4.2075 6.60875C4.1175 6.38375 3.8025 5.46125 4.2975 4.22375C4.2975 4.22375 5.05125 3.9875 6.7725 5.14625C7.4925 4.94375 8.2575 4.8425 9.0225 4.8425C9.7875 4.8425 10.5525 4.94375 11.2725 5.14625C12.9937 3.97625 13.7475 4.22375 13.7475 4.22375C14.2425 5.46125 13.9275 6.38375 13.8375 6.60875C14.4113 7.23875 14.76 8.0375 14.76 9.0275C14.76 12.4812 12.6562 13.2462 10.6537 13.4712C10.98 13.7525 11.2613 14.2925 11.2613 15.1362C11.2613 16.34 11.25 17.3075 11.25 17.6112C11.25 17.8475 11.4187 18.1287 11.8687 18.0387C13.6554 17.4355 15.2079 16.2873 16.3077 14.7555C17.4076 13.2238 17.9995 11.3857 18 9.5C18 4.5275 13.9725 0.5 9 0.5Z" fill="black"/>
</g>
<defs>
<clipPath id="clip0">
<rect width="18" height="18" fill="white" transform="translate(0 0.5)"/>
</clipPath>
</defs>
</svg>
