<svg width="18" height="18" viewBox="0 0 18 18" fill="none" xmlns="http://www.w3.org/2000/svg">
<path d="M3.00001 7.8V7.2H2.40001V7.8H3.00001ZM7.80001 7.8V7.2H7.20001V7.8H7.80001ZM7.80001 12.6H7.20001V13.2H7.80001V12.6ZM16.2 4.2H16.8V3.9516L16.6248 3.7752L16.2 4.2ZM12.6 0.6L13.0248 0.1752L12.8484 0H12.6V0.6ZM3.00001 8.4H4.20001V7.2H3.00001V8.4ZM3.60001 13.2V10.2H2.40001V13.2H3.60001ZM3.60001 10.2V7.8H2.40001V10.2H3.60001ZM4.20001 9.6H3.00001V10.8H4.20001V9.6ZM4.80001 9C4.80001 9.15913 4.7368 9.31174 4.62428 9.42426C4.51175 9.53679 4.35914 9.6 4.20001 9.6V10.8C4.6774 10.8 5.13524 10.6104 5.47281 10.2728C5.81037 9.93523 6.00001 9.47739 6.00001 9H4.80001ZM4.20001 8.4C4.35914 8.4 4.51175 8.46321 4.62428 8.57574C4.7368 8.68826 4.80001 8.84087 4.80001 9H6.00001C6.00001 8.52261 5.81037 8.06477 5.47281 7.72721C5.13524 7.38964 4.6774 7.2 4.20001 7.2V8.4ZM7.20001 7.8V12.6H8.40001V7.8H7.20001ZM7.80001 13.2H9.00001V12H7.80001V13.2ZM10.8 11.4V9H9.60001V11.4H10.8ZM9.00001 7.2H7.80001V8.4H9.00001V7.2ZM10.8 9C10.8 8.52261 10.6104 8.06477 10.2728 7.72721C9.93524 7.38964 9.4774 7.2 9.00001 7.2V8.4C9.15914 8.4 9.31175 8.46321 9.42428 8.57574C9.5368 8.68826 9.60001 8.84087 9.60001 9H10.8ZM9.00001 13.2C9.4774 13.2 9.93524 13.0104 10.2728 12.6728C10.6104 12.3352 10.8 11.8774 10.8 11.4H9.60001C9.60001 11.5591 9.5368 11.7117 9.42428 11.8243C9.31175 11.9368 9.15914 12 9.00001 12V13.2ZM12 7.2V13.2H13.2V7.2H12ZM12.6 8.4H15.6V7.2H12.6V8.4ZM12.6 10.8H14.4V9.6H12.6V10.8ZM2.40001 6V1.8H1.20001V6H2.40001ZM15.6 4.2V6H16.8V4.2H15.6ZM3.00001 1.2H12.6V0H3.00001V1.2ZM12.1752 1.0248L15.7752 4.6248L16.6248 3.7752L13.0248 0.1752L12.1752 1.0248ZM2.40001 1.8C2.40001 1.64087 2.46323 1.48826 2.57575 1.37574C2.68827 1.26321 2.84088 1.2 3.00001 1.2V0C2.52262 0 2.06479 0.189642 1.72722 0.527208C1.38965 0.864773 1.20001 1.32261 1.20001 1.8H2.40001ZM1.20001 14.4V16.2H2.40001V14.4H1.20001ZM3.00001 18H15V16.8H3.00001V18ZM16.8 16.2V14.4H15.6V16.2H16.8ZM15 18C15.4774 18 15.9352 17.8104 16.2728 17.4728C16.6104 17.1352 16.8 16.6774 16.8 16.2H15.6C15.6 16.3591 15.5368 16.5117 15.4243 16.6243C15.3118 16.7368 15.1591 16.8 15 16.8V18ZM1.20001 16.2C1.20001 16.6774 1.38965 17.1352 1.72722 17.4728C2.06479 17.8104 2.52262 18 3.00001 18V16.8C2.84088 16.8 2.68827 16.7368 2.57575 16.6243C2.46323 16.5117 2.40001 16.3591 2.40001 16.2H1.20001Z" fill="#1F2145"/>
</svg>
