<svg width="18" height="19" viewBox="0 0 18 19" fill="none" xmlns="http://www.w3.org/2000/svg">
<g clip-path="url(#clip0)">
<path fill-rule="evenodd" clip-rule="evenodd" d="M18 9.5C18 14.4703 13.9703 18.5 9 18.5C4.02975 18.5 0 14.4703 0 9.5C0 4.52975 4.02975 0.5 9 0.5C13.9703 0.5 18 4.52975 18 9.5ZM9.3225 7.14425C8.44725 7.508 6.6975 8.26175 4.074 9.40475C3.648 9.57425 3.4245 9.74 3.40425 9.902C3.36975 10.1765 3.71325 10.2845 4.17975 10.4307C4.2435 10.451 4.3095 10.4712 4.377 10.4937C4.83675 10.643 5.45475 10.8177 5.77575 10.8245C6.0675 10.8305 6.393 10.7105 6.75225 10.4645C9.20325 8.80925 10.4685 7.973 10.548 7.955C10.6042 7.94225 10.6823 7.92575 10.7347 7.973C10.7872 8.0195 10.782 8.108 10.7768 8.132C10.7423 8.27675 9.39675 9.5285 8.69925 10.1765C8.48175 10.3783 8.328 10.5215 8.2965 10.5545C8.226 10.6272 8.154 10.697 8.085 10.7638C7.6575 11.1748 7.338 11.4838 8.103 11.9878C8.4705 12.23 8.7645 12.4303 9.05775 12.6298C9.378 12.848 9.6975 13.0655 10.1115 13.337C10.2165 13.406 10.317 13.4773 10.4152 13.547C10.788 13.8132 11.1233 14.0517 11.5373 14.0142C11.7773 13.9917 12.0262 13.766 12.1522 13.0917C12.45 11.4972 13.0365 8.04425 13.1722 6.62075C13.1805 6.50256 13.1755 6.38382 13.1572 6.26675C13.1463 6.1722 13.1003 6.0852 13.0282 6.023C12.921 5.93525 12.7545 5.9165 12.6795 5.918C12.3413 5.924 11.8223 6.10475 9.3225 7.14425Z" fill="black"/>
</g>
<defs>
<clipPath id="clip0">
<rect width="18" height="18" fill="white" transform="translate(0 0.5)"/>
</clipPath>
</defs>
</svg>
