<svg width="18" height="18" viewBox="0 0 18 18" fill="none" xmlns="http://www.w3.org/2000/svg">
<path d="M5.25 15L8.07075 15.705C8.19 15.735 8.31225 15.75 8.4345 15.75H11.4472C11.726 15.7501 11.9993 15.6726 12.2364 15.5261C12.4735 15.3795 12.6651 15.1698 12.7897 14.9205L15.4147 9.6705C15.529 9.44181 15.583 9.18771 15.5714 8.93232C15.5599 8.67693 15.4833 8.42873 15.3488 8.21127C15.2144 7.99382 15.0266 7.81433 14.8034 7.68984C14.5801 7.56536 14.3287 7.50001 14.073 7.5H10.5V3.75C10.5 3.35218 10.342 2.97064 10.0607 2.68934C9.77936 2.40804 9.39782 2.25 9 2.25H8.92875C8.55375 2.25 8.25 2.55375 8.25 2.92875C8.25 3.46425 8.09175 3.98775 7.794 4.43325L5.25 8.25V15ZM5.25 15H3.75C3.35218 15 2.97064 14.842 2.68934 14.5607C2.40804 14.2794 2.25 13.8978 2.25 13.5V9C2.25 8.60218 2.40804 8.22064 2.68934 7.93934C2.97064 7.65804 3.35218 7.5 3.75 7.5H5.625" stroke="#1F2145" stroke-width="1.5" stroke-linecap="round" stroke-linejoin="round"/>
</svg>
