<svg width="18" height="18" viewBox="0 0 18 18" fill="none" xmlns="http://www.w3.org/2000/svg">
<path d="M1.80005 9.4501C1.80005 9.27281 1.83497 9.09726 1.90281 8.93347C1.97066 8.76969 2.0701 8.62086 2.19545 8.4955C2.32081 8.37014 2.46964 8.2707 2.63343 8.20286C2.79722 8.13502 2.97276 8.1001 3.15005 8.1001C3.32733 8.1001 3.50288 8.13502 3.66667 8.20286C3.83046 8.2707 3.97928 8.37014 4.10464 8.4955C4.23 8.62086 4.32944 8.76969 4.39729 8.93347C4.46513 9.09726 4.50005 9.27281 4.50005 9.4501V14.8501C4.50005 15.2081 4.35782 15.5515 4.10464 15.8047C3.85147 16.0579 3.50809 16.2001 3.15005 16.2001C2.79201 16.2001 2.44863 16.0579 2.19545 15.8047C1.94228 15.5515 1.80005 15.2081 1.80005 14.8501V9.4501Z" fill="#00BAC4"/>
<path d="M5.40015 9.29975V14.1867C5.39999 14.5212 5.49304 14.8492 5.66887 15.1337C5.84469 15.4183 6.09633 15.6482 6.39555 15.7977L6.44055 15.8202C6.93994 16.0698 7.49055 16.1999 8.04885 16.2H12.9232C13.3395 16.2002 13.743 16.0561 14.0649 15.7922C14.3869 15.5284 14.6075 15.161 14.689 14.7528L15.769 9.35285C15.8212 9.09173 15.8148 8.82229 15.7503 8.56394C15.6858 8.3056 15.5648 8.06478 15.396 7.85886C15.2271 7.65293 15.0147 7.48703 14.7741 7.37311C14.5334 7.25918 14.2704 7.20008 14.0041 7.20005H10.8001V3.60005C10.8001 3.12266 10.6105 2.66482 10.2729 2.32726C9.93537 1.98969 9.47754 1.80005 9.00015 1.80005C8.76145 1.80005 8.53253 1.89487 8.36375 2.06365C8.19497 2.23244 8.10015 2.46135 8.10015 2.70005V3.30035C8.10015 4.07928 7.84751 4.8372 7.38015 5.46035L6.12015 7.13975C5.65279 7.76289 5.40015 8.52082 5.40015 9.29975V9.29975Z" fill="#00BAC4"/>
</svg>
